# xmcd
#
# Track frame offsets:
#	150
#	15188
#	31613
#	49538
#	73013
#	89476
#	113383
#	145528
#	163731
#	175994
#
# Disc length: 2583 seconds
#
# Revision: 0
# Processed by: cddbd v1.5.2PL0 Copyright (c) Steve Scherf et al.
# Submitted via: dBpowerAMP V4.0
#
DISCID=6d0a150a
DTITLE=Donnie Romano - BlueSpirits
DYEAR=2009
DGENRE=Blues
TTITLE0=Mean BlueSpirits
TTITLE1=Walking Blues
TTITLE2=Come Back Baby
TTITLE3=A.M. Blues
TTITLE4=I Don't Need No Doctor
TTITLE5=Forgive Me
TTITLE6=I'm A Ram
TTITLE7=I Don't Want To Be Alone
TTITLE8=I'm Leaving
TTITLE9=Bye Bye Bro !!!
EXTD=Arranged by: Donnie Romano, Carlo Romagnoli, Davide Malito\nRecorded March - April 2009 in "Area 23" Lucca (Italy]\nPublished by Kayman Records, 2009\nwww.myspace.com/donnieromano\nwww.donnieromano.it
EXTT0=
EXTT1=
EXTT2=
EXTT3=
EXTT4=
EXTT5=
EXTT6=
EXTT7=
EXTT8=
EXTT9=
PLAYORDER=
